<svg width="84" height="19" viewBox="0 0 84 19" fill="none" xmlns="http://www.w3.org/2000/svg">
<path d="M0.56 5.688C0.56 5 0.76 4.456 1.16 4.056C1.56 3.656 2.104 3.456 2.792 3.456H10.712C10.824 3.632 10.92 3.864 11 4.152C11.096 4.44 11.144 4.744 11.144 5.064C11.144 5.672 11.008 6.104 10.736 6.36C10.48 6.616 10.136 6.744 9.704 6.744H4.64V8.976H10.04C10.152 9.152 10.248 9.384 10.328 9.672C10.424 9.944 10.472 10.24 10.472 10.56C10.472 11.168 10.344 11.6 10.088 11.856C9.832 12.112 9.488 12.24 9.056 12.24H4.64V14.76H10.808C10.92 14.936 11.016 15.168 11.096 15.456C11.192 15.744 11.24 16.048 11.24 16.368C11.24 16.976 11.104 17.416 10.832 17.688C10.576 17.944 10.232 18.072 9.8 18.072H2.792C2.104 18.072 1.56 17.872 1.16 17.472C0.76 17.072 0.56 16.528 0.56 15.84V5.688ZM19.6209 9.192C19.2209 9.192 18.8369 9.256 18.4689 9.384C18.1169 9.512 17.8049 9.704 17.5329 9.96C17.2769 10.2 17.0689 10.504 16.9089 10.872C16.7489 11.24 16.6689 11.672 16.6689 12.168C16.6689 13.16 16.9489 13.904 17.5089 14.4C18.0849 14.896 18.7809 15.144 19.5969 15.144C20.0769 15.144 20.4929 15.088 20.8449 14.976C21.1969 14.864 21.5089 14.744 21.7809 14.616C22.1009 14.84 22.3409 15.088 22.5009 15.36C22.6609 15.616 22.7409 15.928 22.7409 16.296C22.7409 16.952 22.4289 17.464 21.8049 17.832C21.1809 18.184 20.3169 18.36 19.2129 18.36C18.2049 18.36 17.2929 18.216 16.4769 17.928C15.6609 17.624 14.9569 17.208 14.3649 16.68C13.7889 16.136 13.3409 15.488 13.0209 14.736C12.7009 13.984 12.5409 13.152 12.5409 12.24C12.5409 11.184 12.7089 10.264 13.0449 9.48C13.3969 8.68 13.8689 8.024 14.4609 7.512C15.0529 7 15.7329 6.616 16.5009 6.36C17.2849 6.104 18.1089 5.976 18.9729 5.976C20.1249 5.976 21.0129 6.184 21.6369 6.6C22.2609 7.016 22.5729 7.552 22.5729 8.208C22.5729 8.512 22.5009 8.8 22.3569 9.072C22.2129 9.328 22.0449 9.552 21.8529 9.744C21.5809 9.616 21.2529 9.496 20.8689 9.384C20.4849 9.256 20.0689 9.192 19.6209 9.192ZM36.5075 12.168C36.5075 13.16 36.3555 14.048 36.0515 14.832C35.7475 15.6 35.3155 16.248 34.7555 16.776C34.2115 17.304 33.5555 17.704 32.7875 17.976C32.0195 18.248 31.1635 18.384 30.2195 18.384C29.2755 18.384 28.4195 18.24 27.6515 17.952C26.8835 17.664 26.2195 17.256 25.6595 16.728C25.1155 16.184 24.6915 15.528 24.3875 14.76C24.0835 13.992 23.9315 13.128 23.9315 12.168C23.9315 11.224 24.0835 10.368 24.3875 9.6C24.6915 8.832 25.1155 8.184 25.6595 7.656C26.2195 7.112 26.8835 6.696 27.6515 6.408C28.4195 6.12 29.2755 5.976 30.2195 5.976C31.1635 5.976 32.0195 6.128 32.7875 6.432C33.5555 6.72 34.2115 7.136 34.7555 7.68C35.3155 8.208 35.7475 8.856 36.0515 9.624C36.3555 10.392 36.5075 11.24 36.5075 12.168ZM28.1075 12.168C28.1075 13.144 28.2915 13.896 28.6595 14.424C29.0435 14.936 29.5715 15.192 30.2435 15.192C30.9155 15.192 31.4275 14.928 31.7795 14.4C32.1475 13.872 32.3315 13.128 32.3315 12.168C32.3315 11.208 32.1475 10.472 31.7795 9.96C31.4115 9.432 30.8915 9.168 30.2195 9.168C29.5475 9.168 29.0275 9.432 28.6595 9.96C28.2915 10.472 28.1075 11.208 28.1075 12.168Z" fill="#399918"/>
<path d="M43.034 12.6V17.904C42.858 17.952 42.578 18 42.194 18.048C41.81 18.096 41.434 18.12 41.066 18.12C40.698 18.12 40.37 18.088 40.082 18.024C39.81 17.976 39.578 17.88 39.386 17.736C39.194 17.592 39.05 17.392 38.954 17.136C38.858 16.88 38.81 16.544 38.81 16.128V3.456C38.986 3.424 39.266 3.384 39.65 3.336C40.034 3.272 40.402 3.24 40.754 3.24C41.122 3.24 41.442 3.272 41.714 3.336C42.002 3.384 42.242 3.48 42.434 3.624C42.626 3.768 42.77 3.968 42.866 4.224C42.962 4.48 43.01 4.816 43.01 5.232V9.048L48.002 3.312C49.09 3.312 49.866 3.52 50.33 3.936C50.81 4.336 51.05 4.816 51.05 5.376C51.05 5.792 50.946 6.184 50.738 6.552C50.53 6.92 50.194 7.336 49.73 7.8L46.73 10.8C47.13 11.248 47.546 11.712 47.978 12.192C48.426 12.672 48.858 13.144 49.274 13.608C49.706 14.056 50.114 14.488 50.498 14.904C50.898 15.32 51.242 15.68 51.53 15.984C51.53 16.336 51.466 16.648 51.338 16.92C51.21 17.192 51.034 17.424 50.81 17.616C50.602 17.808 50.362 17.952 50.09 18.048C49.818 18.144 49.53 18.192 49.226 18.192C48.57 18.192 48.034 18.032 47.618 17.712C47.202 17.376 46.802 16.984 46.418 16.536L43.034 12.6ZM53.0504 3.096C53.0504 2.488 53.2504 1.976 53.6504 1.56C54.0664 1.144 54.6104 0.935999 55.2824 0.935999C55.9544 0.935999 56.4904 1.144 56.8904 1.56C57.3064 1.976 57.5144 2.488 57.5144 3.096C57.5144 3.704 57.3064 4.216 56.8904 4.632C56.4904 5.048 55.9544 5.256 55.2824 5.256C54.6104 5.256 54.0664 5.048 53.6504 4.632C53.2504 4.216 53.0504 3.704 53.0504 3.096ZM57.3224 17.976C57.1464 18.008 56.8824 18.048 56.5304 18.096C56.1944 18.16 55.8504 18.192 55.4984 18.192C55.1464 18.192 54.8264 18.168 54.5384 18.12C54.2664 18.072 54.0344 17.976 53.8424 17.832C53.6504 17.688 53.4984 17.496 53.3864 17.256C53.2904 17 53.2424 16.672 53.2424 16.272V6.504C53.4184 6.472 53.6744 6.432 54.0104 6.384C54.3624 6.32 54.7144 6.288 55.0664 6.288C55.4184 6.288 55.7304 6.312 56.0024 6.36C56.2904 6.408 56.5304 6.504 56.7224 6.648C56.9144 6.792 57.0584 6.992 57.1544 7.248C57.2664 7.488 57.3224 7.808 57.3224 8.208V17.976ZM59.4159 12.168C59.4159 11.112 59.5759 10.2 59.8959 9.432C60.2159 8.648 60.6559 8 61.2159 7.488C61.7919 6.976 62.4559 6.6 63.2079 6.36C63.9759 6.104 64.7999 5.976 65.6799 5.976C65.9999 5.976 66.3119 6.008 66.6159 6.072C66.9199 6.12 67.1679 6.184 67.3599 6.264V2.376C67.5199 2.328 67.7759 2.28 68.1279 2.232C68.4799 2.168 68.8399 2.136 69.2079 2.136C69.5599 2.136 69.8719 2.16 70.1439 2.208C70.4319 2.256 70.6719 2.352 70.8639 2.496C71.0559 2.64 71.1999 2.84 71.2959 3.096C71.3919 3.336 71.4399 3.656 71.4399 4.056V15.432C71.4399 16.184 71.0879 16.784 70.3839 17.232C69.9199 17.536 69.3199 17.8 68.5839 18.024C67.8479 18.264 66.9999 18.384 66.0399 18.384C64.9999 18.384 64.0639 18.24 63.2319 17.952C62.4159 17.664 61.7199 17.248 61.1439 16.704C60.5839 16.16 60.1519 15.512 59.8479 14.76C59.5599 13.992 59.4159 13.128 59.4159 12.168ZM66.2319 9.168C65.3679 9.168 64.7039 9.416 64.2399 9.912C63.7759 10.408 63.5439 11.16 63.5439 12.168C63.5439 13.16 63.7599 13.912 64.1919 14.424C64.6239 14.92 65.2479 15.168 66.0639 15.168C66.3519 15.168 66.6079 15.128 66.8319 15.048C67.0719 14.952 67.2559 14.848 67.3839 14.736V9.456C67.0639 9.264 66.6799 9.168 66.2319 9.168ZM83.8224 14.52C83.8224 15.736 83.3664 16.688 82.4544 17.376C81.5424 18.064 80.1984 18.408 78.4224 18.408C77.7504 18.408 77.1264 18.36 76.5504 18.264C75.9744 18.168 75.4784 18.024 75.0624 17.832C74.6624 17.624 74.3424 17.368 74.1024 17.064C73.8784 16.76 73.7664 16.4 73.7664 15.984C73.7664 15.6 73.8464 15.28 74.0064 15.024C74.1664 14.752 74.3584 14.528 74.5824 14.352C75.0464 14.608 75.5744 14.84 76.1664 15.048C76.7744 15.24 77.4704 15.336 78.2544 15.336C78.7504 15.336 79.1264 15.264 79.3824 15.12C79.6544 14.976 79.7904 14.784 79.7904 14.544C79.7904 14.32 79.6944 14.144 79.5024 14.016C79.3104 13.888 78.9904 13.784 78.5424 13.704L77.8224 13.56C76.4304 13.288 75.3904 12.864 74.7024 12.288C74.0304 11.696 73.6944 10.856 73.6944 9.768C73.6944 9.176 73.8224 8.64 74.0784 8.16C74.3344 7.68 74.6944 7.28 75.1584 6.96C75.6224 6.64 76.1744 6.392 76.8144 6.216C77.4704 6.04 78.1904 5.952 78.9744 5.952C79.5664 5.952 80.1184 6 80.6304 6.096C81.1584 6.176 81.6144 6.304 81.9984 6.48C82.3824 6.656 82.6864 6.888 82.9104 7.176C83.1344 7.448 83.2464 7.776 83.2464 8.16C83.2464 8.528 83.1744 8.848 83.0304 9.12C82.9024 9.376 82.7344 9.592 82.5264 9.768C82.3984 9.688 82.2064 9.608 81.9504 9.528C81.6944 9.432 81.4144 9.352 81.1104 9.288C80.8064 9.208 80.4944 9.144 80.1744 9.096C79.8704 9.048 79.5904 9.024 79.3344 9.024C78.8064 9.024 78.3984 9.088 78.1104 9.216C77.8224 9.328 77.6784 9.512 77.6784 9.768C77.6784 9.944 77.7584 10.088 77.9184 10.2C78.0784 10.312 78.3824 10.416 78.8304 10.512L79.5744 10.68C81.1104 11.032 82.1984 11.52 82.8384 12.144C83.4944 12.752 83.8224 13.544 83.8224 14.52Z" fill="#D72654"/>
</svg>
