<svg width="45" height="42" viewBox="0 0 45 42" fill="none" xmlns="http://www.w3.org/2000/svg">
<g filter="url(#filter0_d_29_136)">
<path fill-rule="evenodd" clip-rule="evenodd" d="M16.6667 9.66667C16.6667 9.48986 16.7311 9.32029 16.8457 9.19526C16.9603 9.07024 17.1157 9 17.2778 9H30.7222C30.8843 9 31.0397 9.07024 31.1543 9.19526C31.2689 9.32029 31.3333 9.48986 31.3333 9.66667V10.3333H34.3889C34.551 10.3333 34.7064 10.4036 34.821 10.5286C34.9356 10.6536 35 10.8232 35 11V15C35 15.8841 34.6781 16.7319 34.105 17.357C33.532 17.9821 32.7548 18.3333 31.9444 18.3333H30.9159C30.479 19.678 29.7209 20.871 28.7199 21.7891C27.719 22.7072 26.5115 23.3172 25.2222 23.556V27.6667H28.8889C29.051 27.6667 29.2064 27.7369 29.321 27.8619C29.4356 27.987 29.5 28.1565 29.5 28.3333V32.3333C29.5 32.5101 29.4356 32.6797 29.321 32.8047C29.2064 32.9298 29.051 33 28.8889 33H19.1111C18.949 33 18.7936 32.9298 18.679 32.8047C18.5644 32.6797 18.5 32.5101 18.5 32.3333V28.3333C18.5 28.1565 18.5644 27.987 18.679 27.8619C18.7936 27.7369 18.949 27.6667 19.1111 27.6667H22.7778V23.556C21.4885 23.3172 20.281 22.7072 19.2801 21.7891C18.2791 20.871 17.521 19.678 17.0841 18.3333H16.0556C15.2452 18.3333 14.468 17.9821 13.895 17.357C13.3219 16.7319 13 15.8841 13 15V11C13 10.8232 13.0644 10.6536 13.179 10.5286C13.2936 10.4036 13.449 10.3333 13.6111 10.3333H16.6667V9.66667ZM31.3333 15.6667V11.6667H33.7778V15C33.7778 15.5304 33.5846 16.0391 33.2408 16.4142C32.897 16.7893 32.4307 17 31.9444 17H31.3333V15.6667ZM16.6667 11.6667H14.2222V15C14.2222 15.5304 14.4154 16.0391 14.7592 16.4142C15.103 16.7893 15.5693 17 16.0556 17H16.6667V11.6667Z" fill="#FFC107"/>
</g>
<defs>
<filter id="filter0_d_29_136" x="0" y="-4" width="52" height="54" filterUnits="userSpaceOnUse" color-interpolation-filters="sRGB">
<feFlood flood-opacity="0" result="BackgroundImageFix"/>
<feColorMatrix in="SourceAlpha" type="matrix" values="0 0 0 0 0 0 0 0 0 0 0 0 0 0 0 0 0 0 127 0" result="hardAlpha"/>
<feOffset dx="2" dy="2"/>
<feGaussianBlur stdDeviation="7.5"/>
<feComposite in2="hardAlpha" operator="out"/>
<feColorMatrix type="matrix" values="0 0 0 0 0 0 0 0 0 0 0 0 0 0 0 0 0 0 0.25 0"/>
<feBlend mode="normal" in2="BackgroundImageFix" result="effect1_dropShadow_29_136"/>
<feBlend mode="normal" in="SourceGraphic" in2="effect1_dropShadow_29_136" result="shape"/>
</filter>
</defs>
</svg>
